# xmcd CD database file
#
# Track frame offsets:
#	187
#	18657
#	36597
#	51035
#	68455
#	88100
#	109605
#	128375
#	150625
#	168590
#
# Disc length: 2466 seconds
#
# Revision: 0
# Processed by: cddbd v1.5PL3 Copyright (c) Steve Scherf et al.
# Submitted via: CDex 1.51
#
DISCID=7909a00a
DTITLE=岩崎宏美 - CD FILE VL.6
DYEAR=1900
DGENRE=Pop
TTITLE0=れんげ草の恋
TTITLE1=悲しみのほとり
TTITLE2=檸檬
TTITLE3=影絵
TTITLE4=聖母たちのララバイ
TTITLE5=赤い糸
TTITLE6=思い出さないで
TTITLE7=メラニーに
TTITLE8=素敵な気持ち
TTITLE9=WAITING
EXTD=
EXTT0=
EXTT1=
EXTT2=
EXTT3=
EXTT4=
EXTT5=
EXTT6=
EXTT7=
EXTT8=
EXTT9=
PLAYORDER=
